<?xml version="1.0" encoding="utf-8"?>
<!-- Generator: Adobe Illustrator 23.0.6, SVG Export Plug-In . SVG Version: 6.00 Build 0)  -->
<svg version="1.1" id="Layer_1" xmlns="http://www.w3.org/2000/svg" xmlns:xlink="http://www.w3.org/1999/xlink" x="0px" y="0px"
	 viewBox="0 0 100 125" style="enable-background:new 0 0 100 125;" xml:space="preserve">
<style type="text/css">
	.st0{fill:#E9E8E4;}
</style>
<title>08</title>
<g>
	<path class="st0" d="M23.1,23.2c-3.2,0-5.8,2.6-5.8,5.8v74.4c0,3.2,2.6,5.8,5.8,5.8s5.8-2.6,5.8-5.8V29
		C28.9,25.8,26.3,23.2,23.1,23.2z"/>
	<path class="st0" d="M5.3,40.2c-3.2,0-5.8,2.6-5.8,5.8v40.4c0,3.2,2.6,5.8,5.8,5.8s5.8-2.6,5.8-5.8V46C11.1,42.8,8.5,40.2,5.3,40.2
		z"/>
	<path class="st0" d="M76.9,86.9c3.2,0,5.8-2.6,5.8-5.8V49.7c0-3.2-2.6-5.8-5.8-5.8c-3.2,0-5.8,2.6-5.8,5.8v31.4
		C71.1,84.3,73.7,86.9,76.9,86.9L76.9,86.9z"/>
	<path class="st0" d="M59,106.7c3.2,0,5.8-2.6,5.8-5.8V31.4c0-3.2-2.6-5.8-5.8-5.8c-3.1-0.1-5.7,2.4-5.8,5.5c0,0.1,0,0.2,0,0.3v69.4
		c-0.1,3.1,2.4,5.7,5.5,5.8C58.8,106.7,58.9,106.7,59,106.7z"/>
	<path class="st0" d="M41,14.3c-3.2,0-5.8,2.6-5.8,5.8v92.1c0,3.2,2.6,5.8,5.8,5.8c3.1,0.1,5.7-2.4,5.8-5.5c0-0.1,0-0.2,0-0.3V20.1
		c0.1-3.1-2.4-5.7-5.5-5.8C41.2,14.3,41.1,14.3,41,14.3z"/>
	<path class="st0" d="M94.7,100.9c3.2,0,5.8-2.6,5.8-5.8V37.2c0-3.2-2.6-5.8-5.8-5.8c-3.2,0-5.8,2.6-5.8,5.8V95
		C88.9,98.3,91.5,100.9,94.7,100.9z"/>
</g>
</svg>
